<?xml version="1.0" standalone="no"?>
<!DOCTYPE svg PUBLIC "-//W3C//DTD SVG 20010904//EN"
 "http://www.w3.org/TR/2001/REC-SVG-20010904/DTD/svg10.dtd">
<svg version="1.0" xmlns="http://www.w3.org/2000/svg"
 width="1536.000000pt" height="1024.000000pt" viewBox="0 0 1536.000000 1024.000000"
 preserveAspectRatio="xMidYMid meet">

<g transform="translate(0.000000,1024.000000) scale(0.100000,-0.100000)"
fill="#000000" stroke="none">
<path d="M0 5120 l0 -5120 7680 0 7680 0 0 5120 0 5120 -7680 0 -7680 0 0
-5120z m3298 2663 c32 -20 33 -33 2 -33 -28 0 -151 -66 -202 -108 -53 -45
-107 -111 -138 -171 -29 -57 -25 -58 23 -3 69 79 198 177 272 206 41 16 131
35 170 36 126 0 228 -120 255 -302 14 -95 11 -186 -7 -258 -8 -30 -16 -59 -17
-65 -5 -21 -60 -131 -80 -160 l-21 -30 31 22 c45 32 110 106 132 150 31 61 54
150 53 209 0 37 4 54 12 54 7 0 44 -20 81 -45 38 -25 71 -45 73 -45 2 0 32
-23 66 -51 108 -89 231 -213 338 -340 57 -68 109 -128 115 -134 7 -5 56 -64
111 -130 170 -209 317 -331 505 -423 392 -190 857 -186 1428 13 105 37 421
164 685 277 434 185 791 296 1185 367 248 45 476 64 770 65 330 1 525 -18 795
-76 361 -78 672 -201 1015 -400 258 -150 477 -245 731 -316 172 -49 266 -68
629 -128 533 -88 916 -244 1285 -523 33 -25 65 -50 71 -56 7 -5 33 -28 59 -50
93 -78 195 -179 195 -191 0 -8 14 -23 30 -36 17 -12 30 -27 30 -32 0 -6 21
-33 46 -61 164 -181 351 -550 428 -845 52 -199 71 -341 69 -530 -1 -96 -5
-204 -10 -240 l-9 -65 -11 45 -11 45 -1 -45 c-1 -25 -8 -88 -16 -140 -49 -300
-174 -588 -360 -825 -62 -80 -105 -125 -105 -111 0 4 12 37 26 73 24 59 56
173 49 173 -2 0 -20 -30 -41 -67 -147 -266 -390 -472 -632 -534 -41 -10 -77
-17 -79 -15 -2 2 13 16 34 32 44 34 103 93 146 148 l32 41 -39 -29 c-122 -91
-259 -167 -373 -207 -105 -36 -326 -48 -453 -24 -64 12 -121 28 -125 35 -3 4
16 11 42 15 92 14 261 85 323 136 14 11 20 18 14 15 -6 -3 -55 -17 -110 -32
-85 -24 -117 -28 -234 -28 -144 0 -224 13 -305 48 l-50 23 66 22 c110 36 262
135 377 246 35 33 100 95 145 137 45 43 79 78 75 78 -4 0 -53 -28 -108 -61
-55 -34 -103 -60 -105 -57 -11 11 123 218 260 400 75 99 160 236 152 245 -2 2
-28 -24 -57 -57 -29 -34 -54 -59 -56 -57 -2 2 5 30 16 63 126 360 127 735 6
1091 -26 76 -107 266 -111 261 -1 -2 0 -38 4 -80 4 -43 4 -78 1 -78 -3 0 -36
60 -73 133 -86 169 -157 295 -157 281 0 -6 9 -47 20 -90 18 -75 19 -98 1 -78
-14 16 -125 155 -169 213 -67 86 -220 252 -282 306 -20 17 -18 9 13 -47 20
-36 37 -69 37 -73 0 -8 -83 52 -179 130 -121 98 -284 249 -469 435 -157 159
-171 170 -148 125 27 -54 76 -176 107 -265 38 -111 97 -470 77 -470 -2 0 -31
36 -63 80 -32 44 -60 78 -62 76 -2 -2 6 -28 18 -57 11 -30 43 -115 69 -189 26
-74 57 -156 69 -182 11 -27 18 -48 14 -48 -3 0 -49 27 -101 61 l-94 60 43 -61
c74 -106 205 -194 344 -230 68 -18 135 -52 167 -87 39 -42 62 -122 54 -191
-19 -164 -113 -424 -266 -738 -189 -389 -275 -487 -480 -545 -35 -11 -93 -22
-128 -25 -56 -6 -68 -12 -112 -51 -28 -25 -58 -65 -71 -93 -12 -28 -26 -50
-29 -50 -13 0 -32 55 -37 105 -6 59 27 179 64 236 13 19 44 48 69 64 61 39 38
44 -34 9 -59 -30 -105 -83 -117 -136 -8 -36 -14 -38 -60 -28 -28 6 -46 5 -65
-5 -30 -15 -120 -103 -120 -117 0 -4 -5 -8 -11 -8 -8 0 -10 24 -7 79 4 64 10
88 30 118 14 21 30 55 37 75 16 47 87 111 155 138 l51 21 -50 -7 c-71 -8 -140
-49 -173 -100 -15 -24 -33 -41 -40 -39 -14 5 -77 -27 -108 -56 -28 -26 -47
-25 -39 2 4 12 8 27 9 33 3 20 53 100 75 120 12 11 21 25 21 33 0 24 68 89
122 115 80 39 166 58 266 58 162 0 274 55 337 168 89 157 107 285 54 366 -51
76 -150 110 -369 126 -330 24 -392 31 -491 50 -460 90 -759 266 -1134 665
-234 249 -423 359 -679 395 -110 15 -212 8 -343 -25 -171 -43 -330 -118 -510
-239 -60 -40 -173 -116 -253 -170 -80 -54 -176 -114 -214 -133 -37 -19 -66
-36 -64 -38 3 -4 118 9 188 21 l35 6 -30 -26 c-107 -91 -314 -182 -495 -217
-60 -12 -63 -13 -35 -21 17 -5 72 -11 123 -15 74 -5 90 -9 80 -18 -17 -16
-162 -70 -236 -89 -86 -22 -257 -38 -349 -34 -45 1 -78 -1 -74 -5 13 -13 173
-67 199 -67 34 0 26 -18 -10 -25 -229 -39 -439 -32 -725 22 l-141 27 -6 36
c-13 84 -154 279 -261 364 l-40 31 20 -30 c141 -218 189 -345 194 -512 2 -51
-1 -93 -6 -93 -4 0 -17 20 -28 45 -11 25 -36 64 -56 88 l-37 42 10 -60 c13
-81 2 -179 -27 -242 -21 -46 -98 -143 -114 -143 -3 0 -4 43 -3 95 3 64 0 95
-7 95 -6 0 -11 -7 -11 -15 0 -23 -48 -114 -84 -160 -81 -105 -139 -153 -298
-246 -188 -111 -355 -182 -724 -305 -316 -105 -376 -133 -498 -223 -150 -111
-253 -156 -433 -190 -60 -12 -123 -18 -140 -15 -54 11 -153 -71 -191 -157 -22
-52 -39 -49 -48 7 -10 66 3 150 31 203 13 25 26 56 30 68 9 33 81 99 138 128
l52 26 -40 -6 c-83 -13 -167 -74 -198 -144 -22 -49 -33 -54 -83 -42 -42 11
-47 10 -88 -18 -24 -16 -57 -46 -75 -66 -18 -21 -35 -34 -39 -31 -10 10 -5 83
9 124 6 21 23 55 38 77 14 22 32 52 40 68 33 63 85 103 181 139 44 16 44 16
13 17 -43 1 -136 -34 -174 -66 -16 -14 -36 -38 -44 -54 -9 -17 -21 -26 -29
-23 -18 7 -85 -27 -110 -55 -28 -31 -38 -26 -30 17 8 41 62 132 92 153 10 8
25 25 32 39 31 62 135 118 265 145 44 9 157 21 250 26 94 5 199 15 234 23 36
8 122 44 203 85 205 105 346 197 483 316 171 148 219 236 184 343 -12 40 -73
132 -95 145 -8 4 -14 13 -14 19 0 6 -11 23 -25 37 -98 103 -203 253 -273 390
l-43 86 5 -50 c6 -53 27 -130 46 -165 6 -12 10 -24 7 -26 -9 -10 -168 118
-227 183 -98 107 -197 270 -232 381 -22 72 -31 48 -25 -64 l7 -105 -24 28
c-42 50 -105 162 -125 221 -31 90 -60 213 -63 260 -4 80 -18 48 -44 -100 -3
-21 -9 -38 -13 -38 -20 0 -104 306 -132 483 -6 42 -16 77 -20 77 -5 0 -12 -18
-15 -40 -4 -22 -10 -40 -14 -40 -4 0 -15 28 -25 63 -47 156 -147 350 -242 467
l-46 57 -56 -15 c-43 -12 -95 -15 -226 -13 -317 6 -430 5 -590 -3 -192 -11
-239 -2 -320 55 -30 22 -55 43 -55 47 0 4 31 6 70 4 38 -2 95 2 127 9 71 16
58 12 122 32 63 20 129 22 201 6 63 -13 79 -5 19 11 -24 6 -55 16 -68 23 -37
19 -179 14 -220 -7 -47 -25 -81 -30 -186 -30 -65 0 -100 4 -126 17 -38 19
-129 103 -129 121 0 6 -14 24 -30 40 -36 36 -70 103 -70 140 0 54 27 79 148
141 327 164 445 249 564 402 47 62 101 118 134 142 128 91 339 179 536 222
l93 20 75 79 c80 83 134 122 215 152 61 22 137 19 183 -9z m5622 -2833 c89
-25 206 -82 282 -138 47 -35 337 -329 393 -399 16 -20 91 -86 198 -174 5 -3
-7 -35 -25 -69 -26 -50 -33 -75 -32 -119 0 -64 35 -150 87 -215 65 -80 82
-117 82 -176 0 -99 -68 -178 -225 -262 -36 -20 -144 -77 -240 -128 -222 -118
-293 -158 -405 -235 -106 -73 -170 -107 -244 -129 -76 -22 -209 -44 -321 -52
-73 -5 -105 -12 -136 -29 -41 -24 -114 -108 -114 -132 0 -7 -6 -13 -14 -13
-21 0 -31 82 -18 141 7 27 22 66 35 86 13 21 27 47 31 59 14 44 133 134 178
134 10 0 18 5 18 11 0 15 -61 3 -120 -22 -55 -24 -105 -71 -131 -122 -14 -27
-25 -37 -37 -33 -62 19 -71 18 -114 -12 -24 -17 -56 -44 -72 -61 -35 -37 -46
-39 -46 -8 0 45 31 127 65 172 19 25 35 48 35 52 0 3 11 21 25 39 31 41 97 80
173 104 47 15 52 18 27 19 -40 1 -140 -25 -174 -45 -15 -9 -37 -31 -50 -50
-13 -19 -31 -34 -40 -34 -10 0 -43 -16 -76 -35 -32 -20 -59 -34 -61 -32 -2 2
2 21 8 43 8 25 33 59 69 95 31 31 62 66 68 77 21 39 116 91 204 112 73 17 113
20 283 18 196 -3 200 -2 279 25 149 53 301 153 335 223 54 109 -1 192 -225
341 -234 156 -350 265 -429 403 -94 162 -122 325 -89 509 2 14 7 29 11 32 9 9
69 27 112 35 19 3 55 10 80 14 74 15 276 3 360 -20z m-5271 -317 c34 -40 66
-73 70 -73 5 0 7 11 6 25 -4 29 6 32 22 7 6 -10 39 -51 74 -91 68 -80 180
-168 302 -238 42 -25 77 -48 77 -53 0 -4 31 -47 70 -95 l70 -87 -25 -31 c-28
-38 -111 -110 -177 -155 -127 -87 -335 -173 -543 -226 -148 -37 -542 -79 -860
-91 -204 -8 -298 -25 -419 -76 -131 -54 -231 -79 -354 -86 -92 -5 -108 -9
-142 -34 -25 -18 -48 -48 -66 -88 -36 -75 -54 -75 -73 -2 -12 44 -12 64 -2
113 7 33 16 68 20 77 5 9 18 37 29 63 21 47 77 98 132 120 47 19 1 20 -52 1
-60 -21 -116 -72 -142 -131 -20 -45 -32 -49 -85 -31 -28 10 -36 8 -71 -15 -21
-14 -53 -43 -71 -66 -18 -22 -36 -40 -41 -40 -4 0 -8 16 -8 35 0 60 20 131 51
179 16 26 29 51 29 57 0 40 91 109 184 141 l51 18 -58 -5 c-95 -9 -156 -42
-198 -109 -11 -19 -28 -30 -45 -32 -16 -2 -48 -17 -71 -34 -24 -16 -48 -30
-54 -30 -27 0 24 114 75 170 18 19 44 52 59 72 81 110 282 153 608 128 191
-14 292 -6 489 40 302 69 570 189 745 333 66 55 183 204 235 300 18 34 43 79
54 100 16 30 22 35 32 25 6 -7 39 -46 73 -85z"/>
<path d="M3279 7462 c-57 -37 -119 -91 -119 -105 0 -6 10 -1 23 11 32 30 90
52 136 52 34 0 44 -5 67 -36 47 -61 43 -151 -11 -319 -11 -32 42 33 69 85 49
95 57 207 21 284 -30 63 -111 75 -186 28z"/>
<path d="M2247 7039 c-16 -10 -50 -64 -52 -84 -3 -26 18 -63 41 -74 75 -34
159 8 174 87 7 42 6 45 -24 63 -34 21 -109 25 -139 8z"/>
<path d="M1967 6475 c-84 -16 -117 -29 -117 -47 0 -7 13 -8 38 -5 125 20 287
38 347 39 57 0 65 2 45 11 -42 16 -228 18 -313 2z"/>
</g>
</svg>
